<svg xmlns="http://www.w3.org/2000/svg" viewBox="0 0 25.099 15.617">
  <defs>
    <style>
      .cls-1 {
        fill: #8f9ea5;
      }
    </style>
  </defs>
  <path id="Behance" class="cls-1" d="M22.666,83.457H16.377V81.895h6.289v1.562ZM12.191,89.863A4.13,4.13,0,0,1,12.8,92.15a4.556,4.556,0,0,1-.694,2.492A4.321,4.321,0,0,1,11,95.869a4.269,4.269,0,0,1-1.762.784,10.9,10.9,0,0,1-2.205.211H0V81.247H7.542a4.794,4.794,0,0,1,4.045,1.663A3.974,3.974,0,0,1,12.3,85.3a3.476,3.476,0,0,1-.722,2.3,3.682,3.682,0,0,1-1.189.889A3.468,3.468,0,0,1,12.191,89.863ZM3.6,87.4h3.3a3.131,3.131,0,0,0,1.651-.387,1.476,1.476,0,0,0,.633-1.373A1.4,1.4,0,0,0,8.352,84.2a5.9,5.9,0,0,0-1.843-.244H3.6Zm5.907,4.523a1.675,1.675,0,0,0-.993-1.673,3.913,3.913,0,0,0-1.562-.265H3.6v4.162H6.9a3.667,3.667,0,0,0,1.581-.274A1.969,1.969,0,0,0,9.509,91.927ZM25,89.387a14.69,14.69,0,0,1,.1,2.221H16.951a2.674,2.674,0,0,0,1.169,2.36,2.945,2.945,0,0,0,1.612.42,2.272,2.272,0,0,0,2.224-1.281h2.985a3.636,3.636,0,0,1-1.084,2.022,5.434,5.434,0,0,1-4.207,1.633,6.106,6.106,0,0,1-3.941-1.377Q14.007,94.006,14,90.9a6.057,6.057,0,0,1,1.539-4.46,5.4,5.4,0,0,1,4-1.551,6.378,6.378,0,0,1,2.631.523,4.53,4.53,0,0,1,1.931,1.657A5.522,5.522,0,0,1,25,89.387Zm-2.939.291a2.443,2.443,0,0,0-.782-1.768,2.549,2.549,0,0,0-1.733-.606,2.319,2.319,0,0,0-1.745.642,3.015,3.015,0,0,0-.78,1.732h5.04Z" transform="translate(0 -81.247)"/>
</svg>
