<svg xmlns="http://www.w3.org/2000/svg" xmlns:xlink="http://www.w3.org/1999/xlink" viewBox="0 0 290.312 802.571">
  <defs>
    <style>
      .cls-1 {
        opacity: 0.12;
        fill: url(#linear-gradient);
      }
    </style>
    <linearGradient id="linear-gradient" x1="0.5" x2="0.5" y2="1" gradientUnits="objectBoundingBox">
      <stop offset="0" stop-color="#fd5f0b"/>
      <stop offset="1" stop-color="#ee0c74"/>
    </linearGradient>
  </defs>
  <path id="h-background" class="cls-1" d="M145.237,731.322a161.228,161.228,0,0,0,80.567-139.7h64.508v1.288A225.5,225.5,0,0,1,200.118,772.19q-5.017,3.757-10.227,7.253a226.327,226.327,0,0,1-40.789,21.6c-1.286.531-2.574,1.027-3.865,1.532ZM225.8,591.617V433.541H64.509V591.6H0V209.675A225.9,225.9,0,0,1,145.158,0V71.267A161.312,161.312,0,0,0,64.509,209.675V369.022H225.8V210.982h64.508V591.617Z"/>
</svg>
