<svg xmlns="http://www.w3.org/2000/svg" viewBox="0 0 50 50">
  <defs>
    <style>
      .cls-1 {
        fill: #17191a;
      }

      .cls-2 {
        fill: #fff;
      }
    </style>
  </defs>
  <g id="h-logo" transform="translate(41 16.92)">
    <rect id="Rectangle_12" data-name="Rectangle 12" class="cls-1" width="50" height="50" rx="6" transform="translate(-41 -16.92)"/>
    <path id="Union_1" data-name="Union 1" class="cls-2" d="M5.442,27.4a6.041,6.041,0,0,0,3.019-5.234h2.417v.048A8.449,8.449,0,0,1,7.5,28.934q-.188.141-.383.272a8.481,8.481,0,0,1-1.528.809l-.145.057Zm3.019-5.235V16.245H2.417v5.922H0V7.857A8.464,8.464,0,0,1,5.439,0V2.67A6.044,6.044,0,0,0,2.417,7.857v5.971H8.461V7.906h2.417V22.168Z" transform="translate(-21.395 -7.137)"/>
  </g>
</svg>
