<svg xmlns="http://www.w3.org/2000/svg" viewBox="0 0 30.769 25">
  <defs>
    <style>
      .cls-1 {
        fill: #8f9ea5;
      }
    </style>
  </defs>
  <g id="twitter" transform="translate(0 -48)">
    <g id="Group_29" data-name="Group 29" transform="translate(0 48)">
      <path id="Path_15" data-name="Path 15" class="cls-1" d="M30.769,50.96a13.152,13.152,0,0,1-3.635,1,6.273,6.273,0,0,0,2.775-3.487,12.606,12.606,0,0,1-4,1.527A6.308,6.308,0,0,0,15,54.31a6.5,6.5,0,0,0,.146,1.438,17.855,17.855,0,0,1-13-6.6,6.31,6.31,0,0,0,1.938,8.431,6.229,6.229,0,0,1-2.85-.777v.069a6.337,6.337,0,0,0,5.054,6.2,6.3,6.3,0,0,1-1.654.208,5.577,5.577,0,0,1-1.194-.108,6.368,6.368,0,0,0,5.894,4.394,12.675,12.675,0,0,1-7.821,2.69A11.815,11.815,0,0,1,0,70.169,17.759,17.759,0,0,0,9.677,73c11.608,0,17.954-9.615,17.954-17.95,0-.279-.01-.548-.023-.815A12.584,12.584,0,0,0,30.769,50.96Z" transform="translate(0 -48)"/>
    </g>
  </g>
</svg>
