<svg xmlns="http://www.w3.org/2000/svg" viewBox="0 0 25.099 15.617"><path d="M22.666 2.21h-6.289V.648h6.289V2.21zM12.191 8.616a4.13 4.13 0 0 1 .609 2.287 4.556 4.556 0 0 1-.694 2.492A4.321 4.321 0 0 1 11 14.622a4.269 4.269 0 0 1-1.762.784 10.9 10.9 0 0 1-2.205.211H0V0h7.542a4.794 4.794 0 0 1 4.045 1.663 3.974 3.974 0 0 1 .713 2.39 3.476 3.476 0 0 1-.722 2.3 3.682 3.682 0 0 1-1.189.889 3.468 3.468 0 0 1 1.802 1.374zM3.6 6.153h3.3a3.131 3.131 0 0 0 1.651-.387 1.476 1.476 0 0 0 .633-1.373 1.4 1.4 0 0 0-.832-1.44 5.9 5.9 0 0 0-1.843-.244H3.6zm5.907 4.523a1.675 1.675 0 0 0-.993-1.673 3.913 3.913 0 0 0-1.562-.265H3.6V12.9h3.3a3.667 3.667 0 0 0 1.581-.274 1.969 1.969 0 0 0 1.028-1.946zM25 8.14a14.69 14.69 0 0 1 .1 2.221h-8.149a2.674 2.674 0 0 0 1.169 2.36 2.945 2.945 0 0 0 1.612.42 2.272 2.272 0 0 0 2.224-1.281h2.985a3.636 3.636 0 0 1-1.084 2.022 5.434 5.434 0 0 1-4.207 1.633 6.106 6.106 0 0 1-3.941-1.377Q14.007 12.759 14 9.653a6.057 6.057 0 0 1 1.539-4.46 5.4 5.4 0 0 1 4-1.551 6.378 6.378 0 0 1 2.631.523 4.53 4.53 0 0 1 1.931 1.657A5.522 5.522 0 0 1 25 8.14zm-2.939.291a2.443 2.443 0 0 0-.782-1.768 2.549 2.549 0 0 0-1.733-.606 2.319 2.319 0 0 0-1.745.642 3.015 3.015 0 0 0-.78 1.732h5.04z" fill="#8f9ea5"/></svg>