<svg xmlns="http://www.w3.org/2000/svg" viewBox="0 0 25.531 25"><g data-name="Group 43"><path data-name="Path 20" d="M12.764 0a12.824 12.824 0 0 0-4.032 24.978c.638.118.871-.278.871-.618 0-.3-.011-1.111-.018-2.18-3.55.774-4.3-1.719-4.3-1.719a3.384 3.384 0 0 0-1.417-1.875c-1.16-.795.086-.779.086-.779a2.681 2.681 0 0 1 1.955 1.321 2.713 2.713 0 0 0 3.716 1.064 2.736 2.736 0 0 1 .811-1.714c-2.834-.324-5.815-1.423-5.815-6.333a4.968 4.968 0 0 1 1.315-3.44 4.618 4.618 0 0 1 .124-3.391s1.072-.345 3.511 1.313a12.05 12.05 0 0 1 6.392 0C18.4 4.969 19.47 5.314 19.47 5.314a4.625 4.625 0 0 1 .128 3.391 4.958 4.958 0 0 1 1.312 3.44c0 4.923-2.984 6.006-5.828 6.324a3.066 3.066 0 0 1 .866 2.373c0 1.714-.016 3.1-.016 3.515 0 .343.23.742.878.616A12.825 12.825 0 0 0 12.764 0z" fill="#8f9ea5"/></g></svg>