<svg xmlns="http://www.w3.org/2000/svg" viewBox="0 0 50 50"><g transform="translate(41 16.92)"><rect data-name="Rectangle 12" width="50" height="50" rx="6" transform="translate(-41 -16.92)" fill="#17191a"/><path data-name="Union 1" d="M-15.953 20.263a6.041 6.041 0 0 0 3.019-5.234h2.417v.048a8.449 8.449 0 0 1-3.378 6.72q-.188.141-.383.272a8.481 8.481 0 0 1-1.528.809l-.145.057zm3.019-5.235v-5.92h-6.044v5.922h-2.417V.72a8.464 8.464 0 0 1 5.439-7.857v2.67A6.044 6.044 0 0 0-18.978.72v5.971h6.044V.769h2.417v14.262z" fill="#fff"/></g></svg>