<svg xmlns="http://www.w3.org/2000/svg" viewBox="0 0 25 25"><defs><style>.cls-1{fill:#8f9ea5}</style></defs><g id="instagram"><g id="Group_38" data-name="Group 38"><g id="Group_37" data-name="Group 37"><path id="Path_18" data-name="Path 18" class="cls-1" d="M17.188 0H7.813A7.813 7.813 0 0 0 0 7.813v9.375A7.813 7.813 0 0 0 7.813 25h9.375A7.813 7.813 0 0 0 25 17.188V7.813A7.813 7.813 0 0 0 17.188 0zm5.469 17.188a5.475 5.475 0 0 1-5.469 5.469H7.813a5.475 5.475 0 0 1-5.469-5.469V7.813a5.475 5.475 0 0 1 5.469-5.469h9.375a5.475 5.475 0 0 1 5.469 5.469z"/></g></g><g id="Group_40" data-name="Group 40" transform="translate(6.25 6.25)"><g id="Group_39" data-name="Group 39"><path id="Path_19" data-name="Path 19" class="cls-1" d="M134.25 128a6.25 6.25 0 1 0 6.25 6.25 6.25 6.25 0 0 0-6.25-6.25zm0 10.156a3.906 3.906 0 1 1 3.906-3.906 3.912 3.912 0 0 1-3.906 3.906z" transform="translate(-128 -128)"/></g></g><g id="Group_42" data-name="Group 42" transform="translate(18.386 4.948)"><g id="Group_41" data-name="Group 41"><circle id="Ellipse_23" data-name="Ellipse 23" class="cls-1" cx=".833" cy=".833" r=".833"/></g></g></g></svg>