<svg xmlns="http://www.w3.org/2000/svg" width="300" height="300"><defs><style>.cls-1{fill:#fff}</style><filter id="Path_160" x="106.742" y="55.573" width="134.216" height="173.129" filterUnits="userSpaceOnUse"><feOffset dy="10"/><feGaussianBlur stdDeviation="10" result="blur"/><feFlood flood-opacity=".161"/><feComposite operator="in" in2="blur"/><feComposite in="SourceGraphic"/></filter><filter id="Path_161" x="58.282" y="73.932" width="144.986" height="190.496" filterUnits="userSpaceOnUse"><feOffset dy="10"/><feGaussianBlur stdDeviation="10" result="blur-2"/><feFlood flood-opacity=".161"/><feComposite operator="in" in2="blur-2"/><feComposite in="SourceGraphic"/></filter></defs><g id="Group_48" data-name="Group 48" transform="translate(-1262 -281)"><circle id="Ellipse_5" data-name="Ellipse 5" cx="150" cy="150" r="150" transform="translate(1262 281)"/><g id="Group_44" data-name="Group 44"><g filter="url(#Path_160)" transform="translate(1262.004 281.003)"><path id="Path_160-2" data-name="Path 160" class="cls-1" d="M1412.042 394.129h8.51a.828.828 0 0 0 .717-.415l64.049-111.474a.827.827 0 0 0-.717-1.24h-8.452a.827.827 0 0 0-.717.415l-64.107 111.474a.828.828 0 0 0 .717 1.24z" transform="translate(-1274.47 -205.43)"/></g><g filter="url(#Path_161)" transform="translate(1262.004 281.003)"><path id="Path_161-2" data-name="Path 161" class="cls-1" d="M1384.911 342.536q-2.424 4.036-4.858 7.992a.828.828 0 0 1-1.422-.022l-4.6-7.96-.005-.01-8.484-14.695a.828.828 0 0 0-.717-.414h-16.477a.828.828 0 0 0-.717 1.241l21.948 38.015.6.839a.826.826 0 0 1 .024.907q-1.087 1.758-2.172 3.521-23.351 37.96-43.961 76.114a.825.825 0 0 1-.726.432h-8.967a.828.828 0 0 1-.717-1.241l45.544-78.875a.827.827 0 0 0 0-.828l-23.171-40.124-4.272-7.4-.459-.775a.828.828 0 0 1 .712-1.25h29.275l9 .028a.829.829 0 0 1 .714.414l7.747 13.425a.828.828 0 0 0 1.434 0l7.775-13.454a.828.828 0 0 1 .717-.414h9.025a.828.828 0 0 1 .725 1.231q-6.45 11.525-13.515 23.303z" transform="translate(-1225.27 -224.07)"/></g></g></g></svg>